<?xml version="1.0" encoding="utf-8"?><!-- Uploaded to: SVG Repo, www.svgrepo.com, Generator: SVG Repo Mixer Tools -->
<svg width="800px" height="800px" viewBox="0 0 400 400" fill="none" xmlns="http://www.w3.org/2000/svg">
<path d="M322 368.204C304.902 368.831 287.615 368.824 270.679 369.296" stroke="#000000" stroke-opacity="0.9" stroke-width="16" stroke-linecap="round" stroke-linejoin="round"/>
<path d="M181.141 70.1063C200.576 50.5697 239.064 63.1238 256.15 84.9016C292.926 131.776 272.317 231.712 184.415 219.155C125.41 213.621 116.716 97.9502 166.945 84.9016" stroke="#000000" stroke-opacity="0.9" stroke-width="16" stroke-linecap="round" stroke-linejoin="round"/>
<path d="M268.495 245.338C270.547 214.115 285.207 212.676 293.477 217.287C310.489 226.772 313.002 287.246 298.836 290.723C271.238 297.497 267.045 259.457 270.474 241.977" stroke="#000000" stroke-opacity="0.9" stroke-width="16" stroke-linecap="round" stroke-linejoin="round"/>
<path d="M290.982 297.189C290.981 316.883 292.281 333.262 292.281 355.942" stroke="#000000" stroke-opacity="0.9" stroke-width="16" stroke-linecap="round" stroke-linejoin="round"/>
<path d="M232.341 348.549C232.891 319.001 231.622 266.383 227.001 241.54" stroke="#000000" stroke-opacity="0.9" stroke-width="16" stroke-linecap="round" stroke-linejoin="round"/>
<path d="M149.474 241.54C123.268 272.114 115.231 315.883 109.53 361.541" stroke="#000000" stroke-opacity="0.9" stroke-width="16" stroke-linecap="round" stroke-linejoin="round"/>
<path d="M211.257 163.744C248.174 156.489 237.181 204.817 211.257 198.414C192.867 193.872 192.867 163.744 207.809 163.744" stroke="#000000" stroke-opacity="0.9" stroke-width="16" stroke-linecap="round" stroke-linejoin="round"/>
<path d="M233.117 138.184C233.117 136 232.751 133.664 233.07 131.382" stroke="#000000" stroke-opacity="0.9" stroke-width="16" stroke-linecap="round" stroke-linejoin="round"/>
<path d="M206.332 138.184C206.332 135.918 206.332 133.648 206.332 131.382" stroke="#000000" stroke-opacity="0.9" stroke-width="16" stroke-linecap="round" stroke-linejoin="round"/>
<path d="M120.167 114.157C167.68 105.86 120.217 205.648 109.895 144.402C108.18 134.235 106.226 121.817 112.635 112.695" stroke="#000000" stroke-opacity="0.9" stroke-width="16" stroke-linecap="round" stroke-linejoin="round"/>
<path d="M271.819 116.655C279.312 111.394 288.475 107.113 291.763 118.718C303.437 173.84 261.944 180.937 271.029 128.006" stroke="#000000" stroke-opacity="0.9" stroke-width="16" stroke-linecap="round" stroke-linejoin="round"/>
<path d="M121.843 104.532C126.754 6.39303 276.915 4.49008 288.179 100.583" stroke="#000000" stroke-opacity="0.9" stroke-width="16" stroke-linecap="round" stroke-linejoin="round"/>
<path d="M225.91 241.54C243.381 292.861 267.403 328.894 294.702 352.917" stroke="#000000" stroke-opacity="0.9" stroke-width="16" stroke-linecap="round" stroke-linejoin="round"/>
</svg>